<?xml version="1.0" encoding="UTF-8"?>
<svg version="1.1" xmlns="http://www.w3.org/2000/svg" width="1080" height="240">
<path d="M0 0 C8.91 0 17.82 0 27 0 C31.49829033 11.24572582 31.49829033 11.24572582 32.93530273 15.53466797 C33.25921494 16.49621796 33.58312714 17.45776794 33.91685486 18.44845581 C34.25237869 19.45288727 34.58790253 20.45731873 34.93359375 21.4921875 C35.67245607 23.68361734 36.41139059 25.87502284 37.15039062 28.06640625 C38.2948256 31.4710329 39.43787434 34.87611686 40.5793457 38.28173828 C41.69375866 41.60313534 42.8134363 44.92272416 43.93359375 48.2421875 C44.43384315 49.74276199 44.43384315 49.74276199 44.94419861 51.27365112 C47.32520579 58.31956727 50.06288902 65.1679681 53 72 C53.40202637 70.81374023 53.80405273 69.62748047 54.21826172 68.40527344 C61.97197171 45.53826675 69.79878812 22.71104828 78 0 C86.91 0 95.82 0 105 0 C105 33.33 105 66.66 105 101 C98.4 101 91.8 101 85 101 C84.67 79.55 84.34 58.1 84 36 C77.17590242 55.89397333 77.17590242 55.89397333 70.35791016 75.79003906 C69.50184908 78.28197714 68.64558072 80.77384402 67.7890625 83.265625 C67.56842133 83.91126404 67.34778015 84.55690308 67.12045288 85.22210693 C66.46784288 87.1310628 65.81138008 89.03870017 65.15478516 90.94628906 C64.78616364 92.02106506 64.41754211 93.09584106 64.03775024 94.20318604 C63 97 63 97 61 101 C55.06 101 49.12 101 43 101 C37.75628178 87.26246345 32.92340622 73.39857574 28.125 59.5 C25.44375 51.745 22.7625 43.99 20 36 C19.67 57.45 19.34 78.9 19 101 C12.73 101 6.46 101 0 101 C0 67.67 0 34.34 0 0 Z " fill="#FEFEFE" transform="translate(230,71)"/>
<path d="M0 0 C0.88184967 -0.0065712 1.76369934 -0.0131424 2.67227173 -0.01991272 C5.58929536 -0.03961378 8.50626751 -0.05130276 11.42333984 -0.0612793 C12.92160875 -0.06739259 12.92160875 -0.06739259 14.45014572 -0.07362938 C19.73954816 -0.09447898 25.02892475 -0.10878412 30.31835938 -0.11816406 C35.76551824 -0.12921122 41.21226667 -0.16359494 46.65928078 -0.20333576 C50.86136604 -0.22955946 55.06335449 -0.23786113 59.26551437 -0.24144554 C61.27244201 -0.24629855 63.27936569 -0.25787559 65.28621292 -0.27648354 C85.38800438 -0.45125005 85.38800438 -0.45125005 93.25927734 4.17700195 C94.61279297 4.9369043 94.61279297 4.9369043 95.99365234 5.7121582 C102.81891768 10.88401624 107.46929586 17.7138889 109.25927734 26.17700195 C109.36932075 29.09288422 109.42681559 31.98554485 109.4362793 34.90185547 C109.44285049 35.78209885 109.44942169 36.66234222 109.45619202 37.56925964 C109.47589506 40.48147676 109.48758328 43.39364228 109.49755859 46.3059082 C109.50163412 47.30350599 109.50570965 48.30110378 109.50990868 49.32893181 C109.53076037 54.6130032 109.54506391 59.89704872 109.55444336 65.18115234 C109.56548342 70.61924525 109.5998583 76.05692624 109.63961506 81.494874 C109.66585928 85.69271058 109.6741423 89.89045035 109.67772484 94.08836174 C109.68257354 96.09167183 109.69413811 98.0949781 109.71276283 100.09820747 C109.93296466 125.36028293 109.93296466 125.36028293 100.16162109 135.4621582 C88.6173734 145.8685745 74.30098595 145.63460635 59.60693359 145.57543945 C57.81676617 145.57746586 56.02659957 145.58038199 54.23643494 145.58413696 C50.50218776 145.5885348 46.76815732 145.58221261 43.03393555 145.56811523 C38.28233325 145.5510374 33.53124003 145.56087192 28.77965641 145.57883263 C25.08784758 145.58975026 21.39615646 145.58618762 17.7043438 145.57844925 C15.9539121 145.57646856 14.2034692 145.57883022 12.45305061 145.58588791 C-2.51601567 145.63301144 -16.38859558 145.17553819 -27.74072266 134.17700195 C-34.15906482 126.04452424 -36.04309812 117.51519454 -36.03125 107.38110352 C-36.03796722 106.54089661 -36.04468445 105.7006897 -36.05160522 104.83502197 C-36.07047925 102.07916214 -36.07450418 99.32354726 -36.07666016 96.56762695 C-36.08309594 94.63482568 -36.08982487 92.70202536 -36.09683228 90.76922607 C-36.10877895 86.72446435 -36.11251584 82.67978787 -36.11132812 78.63500977 C-36.1111252 73.47958093 -36.13841159 68.32470496 -36.17287254 63.16940689 C-36.19522971 59.1782587 -36.19916296 55.18724166 -36.19810867 51.19603729 C-36.20045198 49.29683276 -36.20920296 47.3976239 -36.22477341 45.49848175 C-36.33104854 31.19627365 -35.7510531 19.10342846 -25.25244141 8.30981445 C-17.5373685 1.75860169 -9.86119945 0.03193998 0 0 Z M-16.74072266 19.17700195 C-21.15263985 25.01981121 -21.89369468 29.32375964 -21.91772461 36.46875 C-21.92429581 37.31465195 -21.930867 38.16055389 -21.93763733 39.03208923 C-21.95736273 41.83430064 -21.9690324 44.63645841 -21.97900391 47.4387207 C-21.98307943 48.39684977 -21.98715496 49.35497883 -21.99135399 50.34214211 C-22.01221336 55.41526702 -22.02651461 60.48836491 -22.03588867 65.56152344 C-22.04694152 70.79256198 -22.0813289 76.02317379 -22.12106037 81.2540617 C-22.14725277 85.2836433 -22.15558294 89.31312374 -22.15917015 93.34278297 C-22.16403078 95.27042326 -22.1756298 97.19805919 -22.19420815 99.12561607 C-22.21865124 101.83017773 -22.21762502 104.53364211 -22.21069336 107.23828125 C-22.22350342 108.0276709 -22.23631348 108.81706055 -22.24951172 109.63037109 C-22.19221899 115.79467802 -20.58147516 121.0967973 -16.32874012 125.70800304 C-10.68524801 130.67998627 -5.61963388 131.47598668 1.6862793 131.4675293 C2.52271973 131.47424652 3.35916016 131.48096375 4.22094727 131.48788452 C6.97987853 131.50684657 9.73856626 131.51078793 12.49755859 131.51293945 C14.42180988 131.51936906 16.3460602 131.52609754 18.27030945 131.53311157 C22.30270656 131.54508016 26.33501803 131.54879287 30.36743164 131.54760742 C35.52221965 131.54740436 40.67645558 131.57469553 45.83111286 131.60915184 C49.80580645 131.63144386 53.78036772 131.63544424 57.75511742 131.63438797 C59.65483692 131.63674088 61.55456023 131.64554686 63.45421791 131.6610527 C66.11789667 131.68075765 68.78039197 131.6748571 71.4440918 131.6628418 C72.22098862 131.67408081 72.99788544 131.68531982 73.79832458 131.69689941 C80.25425389 131.62329459 85.44941815 129.65628947 90.31787109 125.3605957 C90.77291016 124.78438477 91.22794922 124.20817383 91.69677734 123.61450195 C92.16986328 123.03571289 92.64294922 122.45692383 93.13037109 121.8605957 C95.85676909 117.79458346 95.42771419 113.39476778 95.45214844 108.70166016 C95.46032593 107.83625107 95.46850342 106.97084198 95.47692871 106.07920837 C95.50176214 103.21207365 95.51829495 100.34498844 95.53271484 97.4777832 C95.53803852 96.49758902 95.5433622 95.51739483 95.5488472 94.50749779 C95.57557195 89.31766924 95.59494761 84.12786468 95.609375 78.93798828 C95.6227066 74.64773197 95.650546 70.35795213 95.69140625 66.06787109 C95.74078071 60.88370682 95.76550223 55.69997431 95.77260208 50.51558495 C95.77930579 48.5432686 95.79450488 46.57096154 95.81849289 44.59877968 C95.85022373 41.83178518 95.85016924 39.06644617 95.84277344 36.29931641 C95.85917877 35.49122528 95.87558411 34.68313416 95.89248657 33.85055542 C95.81415597 26.65698964 92.88495833 21.9485541 88.00927734 16.80200195 C79.26447029 11.63461597 68.19385021 12.88447931 58.38037109 12.91137695 C56.6411992 12.91002742 54.90202767 12.90808449 53.16285706 12.90557861 C49.53097923 12.9026417 45.89920026 12.9068792 42.26733398 12.91625977 C37.62846999 12.92766197 32.98983727 12.92108086 28.35098171 12.90911484 C24.764046 12.90186471 21.17716453 12.90419847 17.59022713 12.90937042 C15.88032058 12.91069776 14.170409 12.90909155 12.46050835 12.90441132 C10.06574451 12.899293 7.67134803 12.90712969 5.27661133 12.91821289 C4.5808046 12.91416443 3.88499786 12.91011597 3.16810608 12.90594482 C-4.3268976 12.96972724 -10.83174753 14.34238594 -16.74072266 19.17700195 Z " fill="#FEFEFE" transform="translate(85.74072265625,45.822998046875)"/>
<path d="M0 0 C6.6 0 13.2 0 20 0 C20 35.31 20 70.62 20 107 C13.4 107 6.8 107 0 107 C-0.495 103.04 -0.495 103.04 -1 99 C-1.495 99.7425 -1.99 100.485 -2.5 101.25 C-6.94919772 106.14411749 -12.90972721 108.66504853 -19.48046875 109.203125 C-28.42744409 109.35805098 -35.94130709 107.80381417 -43 102 C-52.66142731 91.78164831 -54.43588222 78.71868569 -54.2109375 65.17578125 C-53.81002734 54.37842928 -50.97126426 43.94606905 -43.1484375 36.15625 C-34.71866579 29.30496144 -25.64487889 28.01635929 -15 29 C-9.02053523 30.25627191 -5.8246709 32.97944091 -1 37 C-0.67 24.79 -0.34 12.58 0 0 Z M-29.359375 51.68359375 C-34.19848245 59.83643783 -34.21639995 70.49657037 -32.50390625 79.65234375 C-30.62254418 85.1901383 -27.43685949 88.78157025 -22.25 91.375 C-16.92293064 92.39943642 -12.44232752 92.51967046 -7.71484375 89.578125 C-3.58567366 86.19085661 -0.95223328 83.3959886 0 78 C0.13019531 77.27039063 0.26039063 76.54078125 0.39453125 75.7890625 C1.50838282 68.02882187 0.80593859 60.19885227 -2.625 53.0625 C-6.41309685 48.1778488 -10.43952676 46.36578189 -16.5 45.5 C-21.54026191 46.22003742 -26.06090794 47.59842334 -29.359375 51.68359375 Z " fill="#FEFEFE" transform="translate(538,65)"/>
<path d="M0 0 C5.9369924 5.0441244 9.57694391 11.1674186 10.26226807 18.99589539 C10.34620561 22.56348645 10.33719578 26.11919102 10.29296875 29.6875 C10.28872391 30.98574707 10.28447906 32.28399414 10.28010559 33.62158203 C10.26873422 37.04772757 10.23933543 40.47348234 10.20599365 43.8994751 C10.1751248 47.4055859 10.1615646 50.91176078 10.14648438 54.41796875 C10.11445666 61.27882106 10.06175344 68.13935145 10 75 C3.4 75 -3.2 75 -10 75 C-10.01458252 73.42065674 -10.02916504 71.84131348 -10.04418945 70.21411133 C-10.10217553 64.35271601 -10.17940928 58.49170473 -10.26245117 52.63061523 C-10.29569888 50.09422032 -10.32373125 47.55775144 -10.34643555 45.02124023 C-10.3799834 41.37451672 -10.43230152 37.72847089 -10.48828125 34.08203125 C-10.49467117 32.94852737 -10.5010611 31.8150235 -10.50764465 30.64717102 C-10.52743881 29.58644882 -10.54723297 28.52572662 -10.56762695 27.43286133 C-10.58428154 26.03720695 -10.58428154 26.03720695 -10.60127258 24.61335754 C-11.17334887 20.8638289 -12.67668676 18.02924363 -15.6875 15.6875 C-20.71238983 14.19361383 -24.67850215 14.41266762 -29.375 16.5 C-30.24125 16.995 -31.1075 17.49 -32 18 C-32.66 18 -33.32 18 -34 18 C-37.27300888 25.7149495 -38.31270043 32.20694939 -38.4140625 40.52734375 C-38.43342865 41.51626114 -38.4527948 42.50517853 -38.4727478 43.52406311 C-38.53220622 46.66178951 -38.57879356 49.79955328 -38.625 52.9375 C-38.66321084 55.07358311 -38.70226436 57.20965133 -38.7421875 59.34570312 C-38.83945542 64.56372162 -38.91929206 69.78159433 -39 75 C-45.6 75 -52.2 75 -59 75 C-59 49.59 -59 24.18 -59 -2 C-52.73 -2 -46.46 -2 -40 -2 C-39.67 1.63 -39.34 5.26 -39 9 C-38.05125 7.7625 -37.1025 6.525 -36.125 5.25 C-27.52786652 -4.44756657 -11.30076441 -6.59946984 0 0 Z " fill="#FEFEFE" transform="translate(458,97)"/>
<path d="M0 0 C1.71889798 1.42869442 3.32541726 2.82318746 4.8046875 4.5 C4.8046875 8.67962468 1.41668636 11.55312949 -1.1953125 14.5 C-4.82235291 14.08149534 -6.74934828 12.32810655 -9.33984375 9.8515625 C-15.01932268 5.71451048 -20.30845303 4.99915152 -27.1328125 5.0625 C-27.89271484 5.04251953 -28.65261719 5.02253906 -29.43554688 5.00195312 C-35.06384917 5.00675953 -39.54025154 6.25410277 -44.1953125 9.5 C-47.24587334 13.78985119 -47.75197663 17.30446811 -47.1953125 22.5 C-45.56726791 27.58763934 -43.09696468 29.62049569 -38.71435547 32.26904297 C-33.82175193 34.65986551 -28.53281534 35.7450477 -23.2578125 37 C-11.04135234 39.9163223 -0.28471891 43.35950421 6.8046875 54.5 C9.99759012 62.66487644 10.1883644 71.83351381 7.0546875 80.0625 C3.33712137 87.96232802 -1.69757007 92.5000966 -9.890625 95.48046875 C-23.60388233 99.37503383 -38.93968444 98.81467598 -51.5703125 91.8125 C-56.99479126 88.27287275 -62.10959163 83.75716262 -64.1953125 77.5 C-62.8671875 75.45703125 -62.8671875 75.45703125 -60.9453125 73.3125 C-60.32140625 72.59707031 -59.6975 71.88164062 -59.0546875 71.14453125 C-57.1953125 69.5 -57.1953125 69.5 -54.1953125 69.5 C-52.87109375 71.07421875 -52.87109375 71.07421875 -51.5078125 73.1875 C-46.75189828 79.83871666 -41.06197538 82.61001145 -33.1953125 84.5 C-25.0336361 85.25150339 -15.94596698 85.87327879 -9.1953125 80.5 C-5.59268813 76.13944647 -4.49586152 71.2483863 -4.83203125 65.66796875 C-5.4622977 61.90670124 -6.53750095 59.18486307 -9.1953125 56.5 C-16.4580264 51.51693071 -25.79600736 49.82724536 -34.22607422 47.73022461 C-42.4444015 45.63896031 -51.97259331 42.877285 -56.57421875 35.19921875 C-60.99324964 26.70108242 -62.61102332 19.37651497 -59.6953125 10 C-57.05047709 3.25844401 -53.08339717 -0.53795727 -46.6640625 -3.77734375 C-31.85699801 -10.0435864 -13.2510643 -9.60077111 0 0 Z " fill="#5D16EB" transform="translate(639.1953125,76.5)"/>
<path d="M0 0 C6.45511817 4.70651654 9.61692675 12.46004127 10.89453125 20.1015625 C11.4339206 25.69580058 11.50345317 31.3278885 11.16796875 36.9375 C10.16796875 37.9375 10.16796875 37.9375 8.03562927 38.05775452 C7.09631058 38.05553391 6.15699188 38.05331329 5.18920898 38.05102539 C4.12818466 38.05094986 3.06716034 38.05087433 1.97398376 38.05079651 C0.24276024 38.04305458 0.24276024 38.04305458 -1.5234375 38.03515625 C-2.69841293 38.0337413 -3.87338837 38.03232635 -5.08396912 38.03086853 C-8.85418189 38.02524992 -12.62433629 38.01269426 -16.39453125 38 C-18.94335852 37.9949874 -21.49218672 37.99042408 -24.04101562 37.98632812 C-30.30470758 37.97527444 -36.56836524 37.95851821 -42.83203125 37.9375 C-42.37429416 40.19649644 -41.90938026 42.45403952 -41.44140625 44.7109375 C-41.18327148 45.96825684 -40.92513672 47.22557617 -40.65917969 48.52099609 C-39.50229745 53.29945241 -38.26763986 56.19046298 -34.16015625 59.13671875 C-27.24701794 63.34664272 -19.98261811 64.17483346 -12.1328125 62.2890625 C-5.93275291 60.12043179 -3.10273307 57.60671648 0.16796875 51.9375 C4.12617734 52.50295837 6.83387405 53.74652348 10.16796875 55.9375 C8.5878341 62.41605207 5.37568234 66.94101906 -0.2734375 70.45703125 C-10.86822352 75.93600405 -22.09312678 76.51877945 -33.64453125 73.4375 C-41.99402719 70.5289058 -47.62395611 65.74800389 -51.76953125 57.9375 C-57.45418692 45.87543493 -57.77236623 30.49851531 -54.26953125 17.75 C-51.21765798 9.37884057 -45.84334324 2.09816101 -37.83203125 -2.0625 C-25.70703385 -7.53759023 -11.4261828 -6.62669876 0 0 Z M-36.83203125 10.9375 C-40.51439445 16.65564123 -41.85425964 21.09309871 -42.83203125 27.9375 C-28.97203125 27.9375 -15.11203125 27.9375 -0.83203125 27.9375 C-1.92373285 17.51351216 -1.92373285 17.51351216 -6.83203125 9.9375 C-16.03518995 3.38909861 -28.18436349 3.07598386 -36.83203125 10.9375 Z " fill="#5D16EB" transform="translate(788.83203125,99.0625)"/>
<path d="M0 0 C3.96 0 7.92 0 12 0 C12.33 13.2 12.66 26.4 13 40 C14.98 37.525 14.98 37.525 17 35 C19.21875 33.453125 19.21875 33.453125 21.5 32.25 C22.2528125 31.84265625 23.005625 31.4353125 23.78125 31.015625 C31.51171977 27.47702968 41.58896981 27.74915492 49.5 30.5625 C54.26748125 32.82490079 57.37212762 35.41723591 60 40 C62.92979814 48.34109286 63.41188306 56.43943021 63.29296875 65.203125 C63.28872391 66.4069281 63.28447906 67.6107312 63.28010559 68.85101318 C63.26347295 72.65091461 63.22584952 76.45026211 63.1875 80.25 C63.17243325 82.84504436 63.15874836 85.44009713 63.14648438 88.03515625 C63.11361996 94.35698038 63.06194536 100.67839667 63 107 C59.04 107 55.08 107 51 107 C50.970271 104.80657959 50.970271 104.80657959 50.93994141 102.56884766 C50.86347519 97.10806993 50.77482272 91.64754449 50.68261719 86.18701172 C50.64449615 83.83029181 50.60961484 81.47351706 50.578125 79.11669922 C50.53210619 75.71562184 50.47417411 72.31491657 50.4140625 68.9140625 C50.40251129 67.87198639 50.39096008 66.82991028 50.37905884 65.7562561 C50.32549252 54.11937512 50.32549252 54.11937512 45.5625 43.9375 C40.30819835 39.96473534 34.3288157 40.42246549 28 41 C22.68875232 42.57370302 18.87746727 45.20422122 16 50 C13.05484033 56.76045345 12.53479638 63.07405094 12.48828125 70.37890625 C12.47033005 71.43158188 12.45237885 72.48425751 12.43388367 73.5688324 C12.38010874 76.90001532 12.34599031 80.23105769 12.3125 83.5625 C12.27929798 85.8340038 12.24480569 88.10548912 12.20898438 90.37695312 C12.12440111 95.91786678 12.05743388 101.45874112 12 107 C8.04 107 4.08 107 0 107 C0 71.69 0 36.38 0 0 Z " fill="#5D16EB" transform="translate(955,65)"/>
<path d="M0 0 C8.42937926 5.82104304 13.50273278 13.71930276 15.8203125 23.6796875 C16.9906309 33.48408962 15.71713711 42.32825253 9.83203125 50.41015625 C3.08981891 58.29353752 -4.31798201 64.13217318 -14.94921875 64.98046875 C-27.46425577 65.16318123 -35.83072008 63.41127028 -45.1796875 54.6796875 C-51.6889604 48.09808935 -55.09401561 38.89425853 -55.6796875 29.6796875 C-55.03273599 19.8084596 -51.25172216 10.58433673 -44.1796875 3.6796875 C-31.17003445 -7.14187034 -14.60100967 -8.84433919 0 0 Z M-36.1796875 15.5546875 C-40.09269285 20.54492021 -41.70540666 25.10458526 -41.484375 31.5390625 C-40.45606559 38.76359525 -36.88150817 43.82773591 -31.24609375 48.30078125 C-25.9514806 51.83385959 -20.80175003 52.09323842 -14.671875 51.2734375 C-8.60034973 49.82692991 -4.60067361 46.7651388 -1.2421875 41.5546875 C1.94925466 35.99400522 2.49601647 31.00502747 1.8203125 24.6796875 C-0.24978212 18.17689028 -4.18333039 13.58646021 -9.9296875 9.9296875 C-19.84512062 6.11605938 -28.78190421 7.55832838 -36.1796875 15.5546875 Z " fill="#FEFEFE" transform="translate(142.1796875,88.3203125)"/>
<path d="M0 0 C3.96 0 7.92 0 12 0 C12 20.46 12 40.92 12 62 C16.20248508 57.79908916 16.20248508 57.79908916 20.3046875 53.51171875 C20.88500732 52.89143799 21.46532715 52.27115723 22.06323242 51.63208008 C22.66111572 50.99036865 23.25899902 50.34865723 23.875 49.6875 C24.49415283 49.02322998 25.11330566 48.35895996 25.7512207 47.67456055 C33.12225364 40.21455304 33.12225364 40.21455304 39.2578125 31.80859375 C41 30 41 30 44.13671875 29.609375 C45.30847656 29.65578125 46.48023438 29.7021875 47.6875 29.75 C48.86699219 29.78609375 50.04648437 29.8221875 51.26171875 29.859375 C52.61716797 29.92898437 52.61716797 29.92898437 54 30 C53.63908332 35.11931824 50.8006781 37.82098304 47.375 41.3125 C46.27270653 42.46935603 45.17114023 43.62690538 44.0703125 44.78515625 C43.27222168 45.61684326 43.27222168 45.61684326 42.45800781 46.46533203 C40.11097081 48.93577319 37.8871524 51.50560412 35.671875 54.09375 C34.40313319 55.54035281 33.09332254 56.95106027 31.765625 58.34375 C31.01796875 59.1378125 30.2703125 59.931875 29.5 60.75 C28.46359375 61.82507813 28.46359375 61.82507813 27.40625 62.921875 C25.76338753 64.85425712 25.76338753 64.85425712 26.25463867 66.93115234 C27.05824944 69.16167892 27.94654492 70.4186654 29.51953125 72.1796875 C30.30263672 73.06829468 30.30263672 73.06829468 31.1015625 73.97485352 C31.94847656 74.91542603 31.94847656 74.91542603 32.8125 75.875 C33.99653389 77.21445481 35.18011692 78.55430828 36.36328125 79.89453125 C36.96736816 80.57467285 37.57145508 81.25481445 38.19384766 81.95556641 C40.99696843 85.12849604 43.74938065 88.34407045 46.5 91.5625 C46.97928955 92.12114746 47.4585791 92.67979492 47.95239258 93.25537109 C48.86171349 94.31643165 49.76833023 95.37981726 50.671875 96.44580078 C51.58715154 97.51687623 52.51508529 98.57722091 53.453125 99.62841797 C57 103.67469496 57 103.67469496 57 107 C52.14160048 107.76599584 47.84252816 107.9575901 43 107 C39.02860195 104.03664814 36.19206554 100.5988948 33.23632812 96.65039062 C31.38498459 94.17900786 29.40454644 91.81721353 27.4375 89.4375 C25.2409375 86.7459375 25.2409375 86.7459375 23 84 C19.7 80.37 16.4 76.74 13 73 C12.67 84.22 12.34 95.44 12 107 C8.04 107 4.08 107 0 107 C0 71.69 0 36.38 0 0 Z " fill="#5D16EB" transform="translate(668,65)"/>
<path d="M0 0 C5.03047821 3.46446847 9.16344346 7.573544 12 13 C10.64486335 17.06540996 8.69203082 17.97300269 5 20 C2.43262898 19.77244881 1.34602816 19.37074446 -0.421875 17.4765625 C-0.86015625 16.86554688 -1.2984375 16.25453125 -1.75 15.625 C-5.61416957 10.92037355 -9.45547621 9.51715183 -15.3828125 8.65234375 C-22.12668927 8.2401005 -27.55498192 9.99602578 -33 14 C-39.79983092 21.61198872 -40.5554103 31.15536668 -40.31640625 40.97265625 C-39.92792895 47.86609647 -37.91887304 53.63831011 -33.5625 59 C-27.20824467 63.9594188 -22.1274454 65.8112695 -14 65 C-5.67866615 63.05375801 -1.40365896 58.01323464 3 51 C7.40114397 51.50298788 9.71195019 53.08772731 13 56 C9.07063989 65.38890373 4.35482934 71.45111205 -5.1875 75.4375 C-14.70309544 78.49514286 -24.85223968 78.04026081 -34 74 C-43.46091553 69.06988006 -48.42832164 62.29841265 -52.23828125 52.4921875 C-55.91365354 40.46712328 -55.02544341 26.61200922 -49.7109375 15.2421875 C-44.39463702 5.7183337 -37.46781559 0.73798748 -27.17578125 -2.58984375 C-18.5210543 -4.22134524 -7.9604017 -3.9872206 0 0 Z " fill="#5D16EB" transform="translate(925,97)"/>
<path d="M0 0 C0 5.94 0 11.88 0 18 C8.25 18 16.5 18 25 18 C25 21.63 25 25.26 25 29 C16.75 29 8.5 29 0 29 C0.09721282 35.26255232 0.20011796 41.52448555 0.31738281 47.78662109 C0.35553643 49.9144938 0.39041246 52.042428 0.421875 54.17041016 C0.46782232 57.23882955 0.52576688 60.30683047 0.5859375 63.375 C0.60326431 64.78954468 0.60326431 64.78954468 0.62094116 66.23266602 C0.74364063 71.79238832 1.29562879 76.68985358 3 82 C5.77385186 84.53609313 7.52993294 84.94576149 11.25 85.375 C15.88412069 84.91158793 19.63403489 83.61204866 24 82 C25.32 84.97 26.64 87.94 28 91 C21.93041831 96.51780153 15.73895812 97.43877057 7.77734375 97.2421875 C0.65230371 96.62087599 -4.13514724 94.6793575 -8.80859375 89.20703125 C-12.52155965 82.32891409 -12.26982777 74.8781726 -12.1953125 67.28125 C-12.1924826 66.18276733 -12.18965271 65.08428467 -12.18673706 63.95251465 C-12.17560486 60.468229 -12.15051298 56.98420704 -12.125 53.5 C-12.11496121 51.1276079 -12.10583694 48.75521174 -12.09765625 46.3828125 C-12.07568829 40.58844115 -12.04120648 34.79426518 -12 29 C-16.29 29 -20.58 29 -25 29 C-25 25.37 -25 21.74 -25 18 C-20.71 18 -16.42 18 -12 18 C-12 12.72 -12 7.44 -12 2 C-1.125 0 -1.125 0 0 0 Z " fill="#5D17EA" transform="translate(834,77)"/>
<path d="M0 0 C6.6 0 13.2 0 20 0 C20 25.41 20 50.82 20 77 C13.4 77 6.8 77 0 77 C0 51.59 0 26.18 0 0 Z " fill="#FEFEFE" transform="translate(358,95)"/>
<path d="M0 0 C3.12578143 1.6720747 5.39281175 3.7856235 7 7 C7.43032996 11.21226823 7.42629046 14.91059104 5.875 18.875 C3.39130336 21.68985619 1.58140041 22.80619986 -2 24 C-6.98798995 24.29910345 -10.07910638 23.74822606 -14 20.5625 C-17.04086986 16.66638549 -17.39064823 14.1754763 -17.359375 9.328125 C-16.75455722 5.40995764 -14.83123243 3.69641184 -12 1 C-8.27533151 -0.86233425 -4.05504687 -0.57130829 0 0 Z " fill="#6522EB" transform="translate(373,64)"/>
<path d="M0 0 C2.4375 1.5625 2.4375 1.5625 4 4 C4.0625 7.5625 4.0625 7.5625 3 11 C0.8125 13.0625 0.8125 13.0625 -2 14 C-5.1875 13.375 -5.1875 13.375 -8 12 C-10 9 -10 9 -9.8125 6 C-8.2703631 0.30595607 -5.84254413 -0.83464916 0 0 Z " fill="#FEFEFE" transform="translate(166,71)"/>
</svg>
