<?xml version="1.0" encoding="UTF-8"?>
<svg version="1.1" xmlns="http://www.w3.org/2000/svg" width="180" height="182">
<path d="M0 0 C0.88184967 -0.0065712 1.76369934 -0.0131424 2.67227173 -0.01991272 C5.58929536 -0.03961378 8.50626751 -0.05130276 11.42333984 -0.0612793 C12.92160875 -0.06739259 12.92160875 -0.06739259 14.45014572 -0.07362938 C19.73954816 -0.09447898 25.02892475 -0.10878412 30.31835938 -0.11816406 C35.76551824 -0.12921122 41.21226667 -0.16359494 46.65928078 -0.20333576 C50.86136604 -0.22955946 55.06335449 -0.23786113 59.26551437 -0.24144554 C61.27244201 -0.24629855 63.27936569 -0.25787559 65.28621292 -0.27648354 C85.38800438 -0.45125005 85.38800438 -0.45125005 93.25927734 4.17700195 C94.61279297 4.9369043 94.61279297 4.9369043 95.99365234 5.7121582 C102.81891768 10.88401624 107.46929586 17.7138889 109.25927734 26.17700195 C109.36932075 29.09288422 109.42681559 31.98554485 109.4362793 34.90185547 C109.44285049 35.78209885 109.44942169 36.66234222 109.45619202 37.56925964 C109.47589506 40.48147676 109.48758328 43.39364228 109.49755859 46.3059082 C109.50163412 47.30350599 109.50570965 48.30110378 109.50990868 49.32893181 C109.53076037 54.6130032 109.54506391 59.89704872 109.55444336 65.18115234 C109.56548342 70.61924525 109.5998583 76.05692624 109.63961506 81.494874 C109.66585928 85.69271058 109.6741423 89.89045035 109.67772484 94.08836174 C109.68257354 96.09167183 109.69413811 98.0949781 109.71276283 100.09820747 C109.93296466 125.36028293 109.93296466 125.36028293 100.16162109 135.4621582 C88.6173734 145.8685745 74.30098595 145.63460635 59.60693359 145.57543945 C57.81676617 145.57746586 56.02659957 145.58038199 54.23643494 145.58413696 C50.50218776 145.5885348 46.76815732 145.58221261 43.03393555 145.56811523 C38.28233325 145.5510374 33.53124003 145.56087192 28.77965641 145.57883263 C25.08784758 145.58975026 21.39615646 145.58618762 17.7043438 145.57844925 C15.9539121 145.57646856 14.2034692 145.57883022 12.45305061 145.58588791 C-2.51601567 145.63301144 -16.38859558 145.17553819 -27.74072266 134.17700195 C-34.15906482 126.04452424 -36.04309812 117.51519454 -36.03125 107.38110352 C-36.03796722 106.54089661 -36.04468445 105.7006897 -36.05160522 104.83502197 C-36.07047925 102.07916214 -36.07450418 99.32354726 -36.07666016 96.56762695 C-36.08309594 94.63482568 -36.08982487 92.70202536 -36.09683228 90.76922607 C-36.10877895 86.72446435 -36.11251584 82.67978787 -36.11132812 78.63500977 C-36.1111252 73.47958093 -36.13841159 68.32470496 -36.17287254 63.16940689 C-36.19522971 59.1782587 -36.19916296 55.18724166 -36.19810867 51.19603729 C-36.20045198 49.29683276 -36.20920296 47.3976239 -36.22477341 45.49848175 C-36.33104854 31.19627365 -35.7510531 19.10342846 -25.25244141 8.30981445 C-17.5373685 1.75860169 -9.86119945 0.03193998 0 0 Z M-16.74072266 19.17700195 C-21.15263985 25.01981121 -21.89369468 29.32375964 -21.91772461 36.46875 C-21.92429581 37.31465195 -21.930867 38.16055389 -21.93763733 39.03208923 C-21.95736273 41.83430064 -21.9690324 44.63645841 -21.97900391 47.4387207 C-21.98307943 48.39684977 -21.98715496 49.35497883 -21.99135399 50.34214211 C-22.01221336 55.41526702 -22.02651461 60.48836491 -22.03588867 65.56152344 C-22.04694152 70.79256198 -22.0813289 76.02317379 -22.12106037 81.2540617 C-22.14725277 85.2836433 -22.15558294 89.31312374 -22.15917015 93.34278297 C-22.16403078 95.27042326 -22.1756298 97.19805919 -22.19420815 99.12561607 C-22.21865124 101.83017773 -22.21762502 104.53364211 -22.21069336 107.23828125 C-22.22350342 108.0276709 -22.23631348 108.81706055 -22.24951172 109.63037109 C-22.19221899 115.79467802 -20.58147516 121.0967973 -16.32874012 125.70800304 C-10.68524801 130.67998627 -5.61963388 131.47598668 1.6862793 131.4675293 C2.52271973 131.47424652 3.35916016 131.48096375 4.22094727 131.48788452 C6.97987853 131.50684657 9.73856626 131.51078793 12.49755859 131.51293945 C14.42180988 131.51936906 16.3460602 131.52609754 18.27030945 131.53311157 C22.30270656 131.54508016 26.33501803 131.54879287 30.36743164 131.54760742 C35.52221965 131.54740436 40.67645558 131.57469553 45.83111286 131.60915184 C49.80580645 131.63144386 53.78036772 131.63544424 57.75511742 131.63438797 C59.65483692 131.63674088 61.55456023 131.64554686 63.45421791 131.6610527 C66.11789667 131.68075765 68.78039197 131.6748571 71.4440918 131.6628418 C72.22098862 131.67408081 72.99788544 131.68531982 73.79832458 131.69689941 C80.25425389 131.62329459 85.44941815 129.65628947 90.31787109 125.3605957 C90.77291016 124.78438477 91.22794922 124.20817383 91.69677734 123.61450195 C92.16986328 123.03571289 92.64294922 122.45692383 93.13037109 121.8605957 C95.85676909 117.79458346 95.42771419 113.39476778 95.45214844 108.70166016 C95.46032593 107.83625107 95.46850342 106.97084198 95.47692871 106.07920837 C95.50176214 103.21207365 95.51829495 100.34498844 95.53271484 97.4777832 C95.53803852 96.49758902 95.5433622 95.51739483 95.5488472 94.50749779 C95.57557195 89.31766924 95.59494761 84.12786468 95.609375 78.93798828 C95.6227066 74.64773197 95.650546 70.35795213 95.69140625 66.06787109 C95.74078071 60.88370682 95.76550223 55.69997431 95.77260208 50.51558495 C95.77930579 48.5432686 95.79450488 46.57096154 95.81849289 44.59877968 C95.85022373 41.83178518 95.85016924 39.06644617 95.84277344 36.29931641 C95.85917877 35.49122528 95.87558411 34.68313416 95.89248657 33.85055542 C95.81415597 26.65698964 92.88495833 21.9485541 88.00927734 16.80200195 C79.26447029 11.63461597 68.19385021 12.88447931 58.38037109 12.91137695 C56.6411992 12.91002742 54.90202767 12.90808449 53.16285706 12.90557861 C49.53097923 12.9026417 45.89920026 12.9068792 42.26733398 12.91625977 C37.62846999 12.92766197 32.98983727 12.92108086 28.35098171 12.90911484 C24.764046 12.90186471 21.17716453 12.90419847 17.59022713 12.90937042 C15.88032058 12.91069776 14.170409 12.90909155 12.46050835 12.90441132 C10.06574451 12.899293 7.67134803 12.90712969 5.27661133 12.91821289 C4.5808046 12.91416443 3.88499786 12.91011597 3.16810608 12.90594482 C-4.3268976 12.96972724 -10.83174753 14.34238594 -16.74072266 19.17700195 Z " fill="#FEFEFE" transform="translate(52.74072265625,19.822998046875)"/>
<path d="M0 0 C8.42937926 5.82104304 13.50273278 13.71930276 15.8203125 23.6796875 C16.9906309 33.48408962 15.71713711 42.32825253 9.83203125 50.41015625 C3.08981891 58.29353752 -4.31798201 64.13217318 -14.94921875 64.98046875 C-27.46425577 65.16318123 -35.83072008 63.41127028 -45.1796875 54.6796875 C-51.6889604 48.09808935 -55.09401561 38.89425853 -55.6796875 29.6796875 C-55.03273599 19.8084596 -51.25172216 10.58433673 -44.1796875 3.6796875 C-31.17003445 -7.14187034 -14.60100967 -8.84433919 0 0 Z M-36.1796875 15.5546875 C-40.09269285 20.54492021 -41.70540666 25.10458526 -41.484375 31.5390625 C-40.45606559 38.76359525 -36.88150817 43.82773591 -31.24609375 48.30078125 C-25.9514806 51.83385959 -20.80175003 52.09323842 -14.671875 51.2734375 C-8.60034973 49.82692991 -4.60067361 46.7651388 -1.2421875 41.5546875 C1.94925466 35.99400522 2.49601647 31.00502747 1.8203125 24.6796875 C-0.24978212 18.17689028 -4.18333039 13.58646021 -9.9296875 9.9296875 C-19.84512062 6.11605938 -28.78190421 7.55832838 -36.1796875 15.5546875 Z " fill="#FEFEFE" transform="translate(109.1796875,62.3203125)"/>
<path d="M0 0 C2.4375 1.5625 2.4375 1.5625 4 4 C4.0625 7.5625 4.0625 7.5625 3 11 C0.8125 13.0625 0.8125 13.0625 -2 14 C-5.1875 13.375 -5.1875 13.375 -8 12 C-10 9 -10 9 -9.8125 6 C-8.2703631 0.30595607 -5.84254413 -0.83464916 0 0 Z " fill="#FEFEFE" transform="translate(133,45)"/>
</svg>
